<svg xmlns="http://www.w3.org/2000/svg" width="1240" height="560" viewBox="0 0 1240 560">
  <defs>
    <marker id="arrow" markerWidth="10" markerHeight="10" refX="9" refY="3" orient="auto" markerUnits="strokeWidth">
      <path d="M0,0 L0,6 L9,3 z" fill="#1A202C"/>
    </marker>
    <style>
      .h1 { font: 700 28px "Microsoft YaHei", "Noto Sans CJK SC", Arial, sans-serif; fill: #1A202C; }
      .title { font: 700 18px "Microsoft YaHei", "Noto Sans CJK SC", Arial, sans-serif; fill: #1A202C; }
      .body { font: 15px "Microsoft YaHei", "Noto Sans CJK SC", Arial, sans-serif; fill: #2D3748; }
      .small { font: 13px "Microsoft YaHei", "Noto Sans CJK SC", Arial, sans-serif; fill: #4A5568; }
    </style>
  </defs>
  <rect width="1240" height="560" fill="#FFFFFF"/>
  <text x="32" y="44" class="h1">任务与记录生命周期总览 v2</text>
  <rect x="40" y="90" width="170" height="130" rx="10" fill="#EBF8FF" stroke="#2D3748" stroke-width="2"/>
<text x="56" y="120" class="title">捕获</text>
<text x="56" y="148" class="body">Inbox</text>
<text x="56" y="170" class="body">Daily 快速记录</text>
<text x="56" y="192" class="body">手机/网页</text>
<line x1="220" y1="155" x2="290" y2="155" stroke="#1A202C" stroke-width="2.5" marker-end="url(#arrow)"/>
<rect x="300" y="90" width="180" height="130" rx="10" fill="#F0FFF4" stroke="#2D3748" stroke-width="2"/>
<text x="316" y="120" class="title">分流</text>
<text x="316" y="148" class="body">删除 / 立刻做</text>
<text x="316" y="170" class="body">Daily / Project</text>
<text x="316" y="192" class="body">Goal / Area</text>
<text x="316" y="214" class="body">Resource / Review</text>
<line x1="490" y1="155" x2="560" y2="155" stroke="#1A202C" stroke-width="2.5" marker-end="url(#arrow)"/>
<rect x="570" y="90" width="180" height="130" rx="10" fill="#FFFAF0" stroke="#2D3748" stroke-width="2"/>
<text x="586" y="120" class="title">执行</text>
<text x="586" y="148" class="body">Daily 选 1-3 件</text>
<text x="586" y="170" class="body">Project 推进</text>
<text x="586" y="192" class="body">Area 维护</text>
<text x="586" y="214" class="body">Goal 校准方向</text>
<line x1="760" y1="155" x2="830" y2="155" stroke="#1A202C" stroke-width="2.5" marker-end="url(#arrow)"/>
<rect x="840" y="90" width="170" height="130" rx="10" fill="#FDF2F8" stroke="#2D3748" stroke-width="2"/>
<text x="856" y="120" class="title">复盘</text>
<text x="856" y="148" class="body">完成结果</text>
<text x="856" y="170" class="body">卡点原因</text>
<text x="856" y="192" class="body">下次规则</text>
<line x1="1020" y1="155" x2="1090" y2="155" stroke="#1A202C" stroke-width="2.5" marker-end="url(#arrow)"/>
<rect x="1100" y="90" width="160" height="130" rx="10" fill="#EDF2F7" stroke="#2D3748" stroke-width="2"/>
<text x="1116" y="120" class="title">结局</text>
<text x="1116" y="148" class="body">归档</text>
<text x="1116" y="170" class="body">沉淀</text>
<text x="1116" y="192" class="body">AI 记忆</text>
<text x="1116" y="214" class="body">删除</text>
<rect x="185" y="285" width="220" height="125" rx="10" fill="#E6FFFA" stroke="#2D3748" stroke-width="2"/>
<text x="201" y="315" class="title">20_Goals</text>
<text x="201" y="343" class="body">方向 / 指标</text>
<text x="201" y="365" class="body">阶段计划</text>
<text x="201" y="387" class="body">不是任务清单</text>
<rect x="445" y="285" width="220" height="125" rx="10" fill="#FEEBC8" stroke="#2D3748" stroke-width="2"/>
<text x="461" y="315" class="title">30_Projects</text>
<text x="461" y="343" class="body">有完成线</text>
<text x="461" y="365" class="body">完整任务与日志</text>
<text x="461" y="387" class="body">完成后归档</text>
<rect x="705" y="285" width="220" height="125" rx="10" fill="#EBF4FF" stroke="#2D3748" stroke-width="2"/>
<text x="721" y="315" class="title">40_Areas</text>
<text x="721" y="343" class="body">长期责任</text>
<text x="721" y="365" class="body">维护清单</text>
<text x="721" y="387" class="body">项目索引</text>
<rect x="965" y="285" width="220" height="125" rx="10" fill="#FAF5FF" stroke="#2D3748" stroke-width="2"/>
<text x="981" y="315" class="title">80_AI_Memory</text>
<text x="981" y="343" class="body">稳定偏好</text>
<text x="981" y="365" class="body">长期背景</text>
<text x="981" y="387" class="body">给 AI 的摘要</text>
<line x1="405" y1="347" x2="445" y2="347" stroke="#1A202C" stroke-width="2.5" marker-end="url(#arrow)"/>
<line x1="665" y1="347" x2="705" y2="347" stroke="#1A202C" stroke-width="2.5" marker-end="url(#arrow)"/>
<line x1="925" y1="347" x2="965" y2="347" stroke="#1A202C" stroke-width="2.5" marker-end="url(#arrow)"/>
<text x="44" y="500" class="small">关键：Goals 管方向，Projects 管完成，Areas 管长期维护，Daily 管今天执行。不是所有记录都要沉淀。</text>
</svg>
